<svg width="32" height="32" viewBox="0 0 32 32" fill="none" xmlns="http://www.w3.org/2000/svg">
<path d="M31.6884 16C31.6754 11.8066 30.0221 7.78466 27.082 4.79456C24.1418 1.80446 20.1484 0.0835744 15.9558 0H15.6884C15.4999 0 15.3158 -3.26601e-08 15.1316 0.0350685C10.9968 0.258731 7.10981 2.07718 4.28822 5.10795C1.46662 8.13872 -0.06968 12.1456 0.00242821 16.2859C0.0745365 20.4261 1.74944 24.3771 4.67486 27.3078C7.60028 30.2385 11.5482 31.9205 15.6884 32H16.2232H16.3327C16.4818 32 16.6352 32 16.7711 32C20.8215 31.718 24.6141 29.9095 27.3829 26.9398C30.1517 23.97 31.6904 20.0602 31.6884 16ZM12.4884 24C12.4884 23.2613 12.7074 22.5392 13.1178 21.9251C13.5282 21.3109 14.1115 20.8322 14.7939 20.5495C15.4764 20.2668 16.2273 20.1929 16.9518 20.337C17.6763 20.4811 18.3417 20.8368 18.8641 21.3591C19.3864 21.8814 19.7421 22.5469 19.8862 23.2714C20.0303 23.9959 19.9563 24.7468 19.6737 25.4292C19.391 26.1117 18.9123 26.695 18.2981 27.1054C17.6839 27.5158 16.9618 27.7348 16.2232 27.7348C15.233 27.7336 14.2837 27.3398 13.5835 26.6396C12.8834 25.9395 12.4895 24.9902 12.4884 24ZM21.7508 29.6416C23.1374 28.284 23.9991 26.4797 24.1837 24.5479C24.21 24.2762 24.2232 24 24.2232 23.7195C24.2174 21.5298 23.344 19.4317 21.7945 17.8846C20.2449 16.3375 18.1454 15.4675 15.9558 15.4652C14.0494 15.4606 12.2227 14.7003 10.8759 13.3511C9.52916 12.0019 8.77225 10.1737 8.7711 8.2674C8.7711 8.0263 8.7711 7.78521 8.80617 7.54849C8.80832 7.52224 8.80832 7.49585 8.80617 7.46959C9.00689 5.7278 9.83383 4.11833 11.133 2.94093C12.4322 1.76353 14.115 1.09847 15.8681 1.06959C19.2735 1.11131 22.5623 2.31601 25.1889 4.48383C27.8155 6.65165 29.622 9.6523 30.3088 12.988C30.9956 16.3237 30.5214 19.7939 28.9648 22.823C27.4082 25.8521 24.8628 28.2581 21.7508 29.6416Z" fill="url(#paint0_linear_453_1477)"/>
<path d="M16.2231 4.26526C15.4845 4.26526 14.7624 4.4843 14.1482 4.89469C13.534 5.30507 13.0553 5.88836 12.7726 6.57081C12.49 7.25325 12.416 8.0042 12.5601 8.72868C12.7042 9.45316 13.0599 10.1186 13.5822 10.641C14.1046 11.1633 14.77 11.519 15.4945 11.6631C16.219 11.8072 16.9699 11.7332 17.6524 11.4506C18.3348 11.1679 18.9181 10.6892 19.3285 10.075C19.7389 9.46081 19.9579 8.73873 19.9579 8.00005C19.9568 7.00988 19.5629 6.06059 18.8628 5.36044C18.1626 4.66028 17.2133 4.26642 16.2231 4.26526Z" fill="url(#paint1_linear_453_1477)"/>
<defs>
<linearGradient id="paint0_linear_453_1477" x1="0" y1="16" x2="31.6884" y2="16" gradientUnits="userSpaceOnUse">
<stop stop-color="#12C2E9"/>
<stop offset="0.503125" stop-color="#C471ED"/>
<stop offset="1" stop-color="#F64F59"/>
</linearGradient>
<linearGradient id="paint1_linear_453_1477" x1="12.4883" y1="8.00005" x2="19.9579" y2="8.00005" gradientUnits="userSpaceOnUse">
<stop stop-color="#12C2E9"/>
<stop offset="0.503125" stop-color="#C471ED"/>
<stop offset="1" stop-color="#F64F59"/>
</linearGradient>
</defs>
</svg>
